<?xml version="1.0" encoding="UTF-8" standalone="no"?><svg xmlns="http://www.w3.org/2000/svg" xmlns:xlink="http://www.w3.org/1999/xlink" contentScriptType="application/ecmascript" contentStyleType="text/css" height="570px" preserveAspectRatio="none" style="width:766px;height:570px;" version="1.1" viewBox="0 0 766 570" width="766px" zoomAndPan="magnify"><defs><filter height="300%" id="f15mgff27mjg0j" width="300%" x="-1" y="-1"><feGaussianBlur result="blurOut" stdDeviation="2.0"/><feColorMatrix in="blurOut" result="blurOut2" type="matrix" values="0 0 0 0 0 0 0 0 0 0 0 0 0 0 0 0 0 0 .4 0"/><feOffset dx="4.0" dy="4.0" in="blurOut2" result="blurOut3"/><feBlend in="SourceGraphic" in2="blurOut3" mode="normal"/></filter></defs><g><!--cluster java.util--><polygon fill="#FFFFFF" filter="url(#f15mgff27mjg0j)" points="22,24,83,24,90,49.1201,744,49.1201,744,558,22,558,22,24" style="stroke: #000000; stroke-width: 2.0;"/><line style="stroke: #000000; stroke-width: 2.0;" x1="22" x2="90" y1="49.1201" y2="49.1201"/><text fill="#000000" font-family="sans-serif" font-size="14" font-weight="bold" lengthAdjust="spacingAndGlyphs" textLength="55" x="26" y="42.0439">java.util</text><!--class Collection--><rect fill="#FEFECE" filter="url(#f15mgff27mjg0j)" height="48" id="Collection" style="stroke: #A80036; stroke-width: 1.5;" width="87" x="496.5" y="62"/><ellipse cx="511.5" cy="78" fill="#B4A7E5" rx="11" ry="11" style="stroke: #A80036; stroke-width: 1.0;"/><path d="M508.0938,72.2813 L508.0938,71.875 L514.4063,71.875 L514.4063,72.2813 L511.875,72.2813 Q511.875,72.2813 512.0234,72.4141 Q512.1719,72.5469 512.1719,72.8125 L512.1719,82.2969 Q512.1719,82.5625 512.3906,82.6953 Q512.6094,82.8281 512.6094,82.8281 L514.4063,82.8281 L514.4063,83.2344 L508.0938,83.2344 L508.0938,82.8281 L509.625,82.8281 Q509.9531,82.8281 510.0859,82.6953 Q510.2188,82.5625 510.2188,82.2969 L510.2188,72.8125 Q510.2188,72.5469 510.0859,72.4141 Q509.9531,72.2813 509.625,72.2813 L508.0938,72.2813 Z "/><text fill="#000000" font-family="sans-serif" font-size="12" font-style="italic" lengthAdjust="spacingAndGlyphs" textLength="55" x="525.5" y="83.5576">Collection</text><line style="stroke: #A80036; stroke-width: 1.5;" x1="497.5" x2="582.5" y1="94" y2="94"/><line style="stroke: #A80036; stroke-width: 1.5;" x1="497.5" x2="582.5" y1="102" y2="102"/><!--class AbstractCollection--><rect fill="#FEFECE" filter="url(#f15mgff27mjg0j)" height="48" id="AbstractCollection" style="stroke: #A80036; stroke-width: 1.5;" width="132" x="300" y="170"/><ellipse cx="315" cy="186" fill="#A9DCDF" rx="11" ry="11" style="stroke: #A80036; stroke-width: 1.0;"/><path d="M315.375,185.9844 L313.3906,185.9844 L312.7969,188.5 Q312.7344,188.8438 312.7344,189.0313 Q312.7344,189.2969 312.8281,189.5625 Q312.9219,189.8281 312.9219,189.8281 L313.5938,189.8281 L313.5938,190.2344 L310.1406,190.2344 L310.1406,189.8281 L310.3281,189.8281 Q310.5938,189.8281 310.7969,189.6641 Q311,189.5 311.0625,189.1094 L313.6563,178.9375 L315.5313,178.3281 L318.1719,189.1094 Q318.3125,189.5 318.5078,189.6641 Q318.7031,189.8281 318.7031,189.8281 L319.1719,189.8281 L319.1719,190.2344 L315.3125,190.2344 L315.3125,189.8281 L315.5781,189.8281 Q315.9844,189.8281 316.0469,189.6641 Q316.1094,189.5 316.1094,189.375 Q316.1094,189.1094 316.0469,188.9063 L315.375,185.9844 Z M313.9844,180.0781 L313.9844,180.0781 L313.5313,185.5781 L315.3125,185.5781 L313.9844,180.0781 Z "/><text fill="#000000" font-family="sans-serif" font-size="12" font-style="italic" lengthAdjust="spacingAndGlyphs" textLength="100" x="329" y="191.5576">AbstractCollection</text><line style="stroke: #A80036; stroke-width: 1.5;" x1="301" x2="431" y1="202" y2="202"/><line style="stroke: #A80036; stroke-width: 1.5;" x1="301" x2="431" y1="210" y2="210"/><!--class List--><rect fill="#FEFECE" filter="url(#f15mgff27mjg0j)" height="48" id="List" style="stroke: #A80036; stroke-width: 1.5;" width="51" x="467.5" y="170"/><ellipse cx="482.5" cy="186" fill="#B4A7E5" rx="11" ry="11" style="stroke: #A80036; stroke-width: 1.0;"/><path d="M479.0938,180.2813 L479.0938,179.875 L485.4063,179.875 L485.4063,180.2813 L482.875,180.2813 Q482.875,180.2813 483.0234,180.4141 Q483.1719,180.5469 483.1719,180.8125 L483.1719,190.2969 Q483.1719,190.5625 483.3906,190.6953 Q483.6094,190.8281 483.6094,190.8281 L485.4063,190.8281 L485.4063,191.2344 L479.0938,191.2344 L479.0938,190.8281 L480.625,190.8281 Q480.9531,190.8281 481.0859,190.6953 Q481.2188,190.5625 481.2188,190.2969 L481.2188,180.8125 Q481.2188,180.5469 481.0859,180.4141 Q480.9531,180.2813 480.625,180.2813 L479.0938,180.2813 Z "/><text fill="#000000" font-family="sans-serif" font-size="12" font-style="italic" lengthAdjust="spacingAndGlyphs" textLength="19" x="496.5" y="191.5576">List</text><line style="stroke: #A80036; stroke-width: 1.5;" x1="468.5" x2="517.5" y1="202" y2="202"/><line style="stroke: #A80036; stroke-width: 1.5;" x1="468.5" x2="517.5" y1="210" y2="210"/><!--class AbstractList--><rect fill="#FEFECE" filter="url(#f15mgff27mjg0j)" height="48" id="AbstractList" style="stroke: #A80036; stroke-width: 1.5;" width="96" x="275" y="278"/><ellipse cx="290" cy="294" fill="#A9DCDF" rx="11" ry="11" style="stroke: #A80036; stroke-width: 1.0;"/><path d="M290.375,293.9844 L288.3906,293.9844 L287.7969,296.5 Q287.7344,296.8438 287.7344,297.0313 Q287.7344,297.2969 287.8281,297.5625 Q287.9219,297.8281 287.9219,297.8281 L288.5938,297.8281 L288.5938,298.2344 L285.1406,298.2344 L285.1406,297.8281 L285.3281,297.8281 Q285.5938,297.8281 285.7969,297.6641 Q286,297.5 286.0625,297.1094 L288.6563,286.9375 L290.5313,286.3281 L293.1719,297.1094 Q293.3125,297.5 293.5078,297.6641 Q293.7031,297.8281 293.7031,297.8281 L294.1719,297.8281 L294.1719,298.2344 L290.3125,298.2344 L290.3125,297.8281 L290.5781,297.8281 Q290.9844,297.8281 291.0469,297.6641 Q291.1094,297.5 291.1094,297.375 Q291.1094,297.1094 291.0469,296.9063 L290.375,293.9844 Z M288.9844,288.0781 L288.9844,288.0781 L288.5313,293.5781 L290.3125,293.5781 L288.9844,288.0781 Z "/><text fill="#000000" font-family="sans-serif" font-size="12" font-style="italic" lengthAdjust="spacingAndGlyphs" textLength="64" x="304" y="299.5576">AbstractList</text><line style="stroke: #A80036; stroke-width: 1.5;" x1="276" x2="370" y1="310" y2="310"/><line style="stroke: #A80036; stroke-width: 1.5;" x1="276" x2="370" y1="318" y2="318"/><!--class ArrayList--><rect fill="#FEFECE" filter="url(#f15mgff27mjg0j)" height="48" id="ArrayList" style="stroke: #A80036; stroke-width: 1.5;" width="79" x="195.5" y="386"/><ellipse cx="210.5" cy="402" fill="#ADD1B2" rx="11" ry="11" style="stroke: #A80036; stroke-width: 1.0;"/><path d="M209.0781,407.3594 Q207.2188,407.3594 206.125,405.9688 Q205.0313,404.5781 205.0313,401.5938 Q205.0313,399.0625 206.1953,397.4063 Q207.3594,395.75 209.3438,395.75 Q210.8125,395.75 211.2813,395.875 Q211.75,396.0781 211.75,396.0781 Q211.75,396.0781 211.75,396.0078 Q211.75,395.9375 212.3594,395.0156 L213.4063,398.6719 L212.0781,399.0781 Q211.6094,397.5313 210.9453,396.8672 Q210.2813,396.2031 209.2188,396.2031 Q208.8281,396.2031 208.0625,397.7344 Q207.2969,399.2656 207.2969,401.5156 Q207.2969,403.9844 207.9609,405.375 Q208.625,406.7656 209.1563,406.7656 Q210.2188,406.7656 210.9766,406 Q211.7344,405.2344 212.0781,403.5781 L213.4063,404.1719 Q213.0781,405.5781 212.1797,406.4688 Q211.2813,407.3594 209.0781,407.3594 Z "/><text fill="#000000" font-family="sans-serif" font-size="12" lengthAdjust="spacingAndGlyphs" textLength="47" x="224.5" y="407.5576">ArrayList</text><line style="stroke: #A80036; stroke-width: 1.5;" x1="196.5" x2="273.5" y1="418" y2="418"/><line style="stroke: #A80036; stroke-width: 1.5;" x1="196.5" x2="273.5" y1="426" y2="426"/><!--class AbstractSequentialList--><rect fill="#FEFECE" filter="url(#f15mgff27mjg0j)" height="48" id="AbstractSequentialList" style="stroke: #A80036; stroke-width: 1.5;" width="155" x="309.5" y="386"/><ellipse cx="324.5" cy="402" fill="#A9DCDF" rx="11" ry="11" style="stroke: #A80036; stroke-width: 1.0;"/><path d="M324.875,401.9844 L322.8906,401.9844 L322.2969,404.5 Q322.2344,404.8438 322.2344,405.0313 Q322.2344,405.2969 322.3281,405.5625 Q322.4219,405.8281 322.4219,405.8281 L323.0938,405.8281 L323.0938,406.2344 L319.6406,406.2344 L319.6406,405.8281 L319.8281,405.8281 Q320.0938,405.8281 320.2969,405.6641 Q320.5,405.5 320.5625,405.1094 L323.1563,394.9375 L325.0313,394.3281 L327.6719,405.1094 Q327.8125,405.5 328.0078,405.6641 Q328.2031,405.8281 328.2031,405.8281 L328.6719,405.8281 L328.6719,406.2344 L324.8125,406.2344 L324.8125,405.8281 L325.0781,405.8281 Q325.4844,405.8281 325.5469,405.6641 Q325.6094,405.5 325.6094,405.375 Q325.6094,405.1094 325.5469,404.9063 L324.875,401.9844 Z M323.4844,396.0781 L323.4844,396.0781 L323.0313,401.5781 L324.8125,401.5781 L323.4844,396.0781 Z "/><text fill="#000000" font-family="sans-serif" font-size="12" font-style="italic" lengthAdjust="spacingAndGlyphs" textLength="123" x="338.5" y="407.5576">AbstractSequentialList</text><line style="stroke: #A80036; stroke-width: 1.5;" x1="310.5" x2="463.5" y1="418" y2="418"/><line style="stroke: #A80036; stroke-width: 1.5;" x1="310.5" x2="463.5" y1="426" y2="426"/><!--class LinkedList--><rect fill="#FEFECE" filter="url(#f15mgff27mjg0j)" height="48" id="LinkedList" style="stroke: #A80036; stroke-width: 1.5;" width="89" x="399.5" y="494"/><ellipse cx="414.5" cy="510" fill="#ADD1B2" rx="11" ry="11" style="stroke: #A80036; stroke-width: 1.0;"/><path d="M413.0781,515.3594 Q411.2188,515.3594 410.125,513.9688 Q409.0313,512.5781 409.0313,509.5938 Q409.0313,507.0625 410.1953,505.4063 Q411.3594,503.75 413.3438,503.75 Q414.8125,503.75 415.2813,503.875 Q415.75,504.0781 415.75,504.0781 Q415.75,504.0781 415.75,504.0078 Q415.75,503.9375 416.3594,503.0156 L417.4063,506.6719 L416.0781,507.0781 Q415.6094,505.5313 414.9453,504.8672 Q414.2813,504.2031 413.2188,504.2031 Q412.8281,504.2031 412.0625,505.7344 Q411.2969,507.2656 411.2969,509.5156 Q411.2969,511.9844 411.9609,513.375 Q412.625,514.7656 413.1563,514.7656 Q414.2188,514.7656 414.9766,514 Q415.7344,513.2344 416.0781,511.5781 L417.4063,512.1719 Q417.0781,513.5781 416.1797,514.4688 Q415.2813,515.3594 413.0781,515.3594 Z "/><text fill="#000000" font-family="sans-serif" font-size="12" lengthAdjust="spacingAndGlyphs" textLength="57" x="428.5" y="515.5576">LinkedList</text><line style="stroke: #A80036; stroke-width: 1.5;" x1="400.5" x2="487.5" y1="526" y2="526"/><line style="stroke: #A80036; stroke-width: 1.5;" x1="400.5" x2="487.5" y1="534" y2="534"/><!--class Queue--><rect fill="#FEFECE" filter="url(#f15mgff27mjg0j)" height="48" id="Queue" style="stroke: #A80036; stroke-width: 1.5;" width="69" x="553.5" y="170"/><ellipse cx="568.5" cy="186" fill="#B4A7E5" rx="11" ry="11" style="stroke: #A80036; stroke-width: 1.0;"/><path d="M565.0938,180.2813 L565.0938,179.875 L571.4063,179.875 L571.4063,180.2813 L568.875,180.2813 Q568.875,180.2813 569.0234,180.4141 Q569.1719,180.5469 569.1719,180.8125 L569.1719,190.2969 Q569.1719,190.5625 569.3906,190.6953 Q569.6094,190.8281 569.6094,190.8281 L571.4063,190.8281 L571.4063,191.2344 L565.0938,191.2344 L565.0938,190.8281 L566.625,190.8281 Q566.9531,190.8281 567.0859,190.6953 Q567.2188,190.5625 567.2188,190.2969 L567.2188,180.8125 Q567.2188,180.5469 567.0859,180.4141 Q566.9531,180.2813 566.625,180.2813 L565.0938,180.2813 Z "/><text fill="#000000" font-family="sans-serif" font-size="12" font-style="italic" lengthAdjust="spacingAndGlyphs" textLength="37" x="582.5" y="191.5576">Queue</text><line style="stroke: #A80036; stroke-width: 1.5;" x1="554.5" x2="621.5" y1="202" y2="202"/><line style="stroke: #A80036; stroke-width: 1.5;" x1="554.5" x2="621.5" y1="210" y2="210"/><!--class Deque--><rect fill="#FEFECE" filter="url(#f15mgff27mjg0j)" height="48" id="Deque" style="stroke: #A80036; stroke-width: 1.5;" width="69" x="406.5" y="278"/><ellipse cx="421.5" cy="294" fill="#B4A7E5" rx="11" ry="11" style="stroke: #A80036; stroke-width: 1.0;"/><path d="M418.0938,288.2813 L418.0938,287.875 L424.4063,287.875 L424.4063,288.2813 L421.875,288.2813 Q421.875,288.2813 422.0234,288.4141 Q422.1719,288.5469 422.1719,288.8125 L422.1719,298.2969 Q422.1719,298.5625 422.3906,298.6953 Q422.6094,298.8281 422.6094,298.8281 L424.4063,298.8281 L424.4063,299.2344 L418.0938,299.2344 L418.0938,298.8281 L419.625,298.8281 Q419.9531,298.8281 420.0859,298.6953 Q420.2188,298.5625 420.2188,298.2969 L420.2188,288.8125 Q420.2188,288.5469 420.0859,288.4141 Q419.9531,288.2813 419.625,288.2813 L418.0938,288.2813 Z "/><text fill="#000000" font-family="sans-serif" font-size="12" font-style="italic" lengthAdjust="spacingAndGlyphs" textLength="37" x="435.5" y="299.5576">Deque</text><line style="stroke: #A80036; stroke-width: 1.5;" x1="407.5" x2="474.5" y1="310" y2="310"/><line style="stroke: #A80036; stroke-width: 1.5;" x1="407.5" x2="474.5" y1="318" y2="318"/><!--class Set--><rect fill="#FEFECE" filter="url(#f15mgff27mjg0j)" height="48" id="Set" style="stroke: #A80036; stroke-width: 1.5;" width="50" x="658" y="170"/><ellipse cx="673" cy="186" fill="#B4A7E5" rx="11" ry="11" style="stroke: #A80036; stroke-width: 1.0;"/><path d="M669.5938,180.2813 L669.5938,179.875 L675.9063,179.875 L675.9063,180.2813 L673.375,180.2813 Q673.375,180.2813 673.5234,180.4141 Q673.6719,180.5469 673.6719,180.8125 L673.6719,190.2969 Q673.6719,190.5625 673.8906,190.6953 Q674.1094,190.8281 674.1094,190.8281 L675.9063,190.8281 L675.9063,191.2344 L669.5938,191.2344 L669.5938,190.8281 L671.125,190.8281 Q671.4531,190.8281 671.5859,190.6953 Q671.7188,190.5625 671.7188,190.2969 L671.7188,180.8125 Q671.7188,180.5469 671.5859,180.4141 Q671.4531,180.2813 671.125,180.2813 L669.5938,180.2813 Z "/><text fill="#000000" font-family="sans-serif" font-size="12" font-style="italic" lengthAdjust="spacingAndGlyphs" textLength="18" x="687" y="191.5576">Set</text><line style="stroke: #A80036; stroke-width: 1.5;" x1="659" x2="707" y1="202" y2="202"/><line style="stroke: #A80036; stroke-width: 1.5;" x1="659" x2="707" y1="210" y2="210"/><!--class SortedSet--><rect fill="#FEFECE" filter="url(#f15mgff27mjg0j)" height="48" id="SortedSet" style="stroke: #A80036; stroke-width: 1.5;" width="86" x="511" y="278"/><ellipse cx="526" cy="294" fill="#B4A7E5" rx="11" ry="11" style="stroke: #A80036; stroke-width: 1.0;"/><path d="M522.5938,288.2813 L522.5938,287.875 L528.9063,287.875 L528.9063,288.2813 L526.375,288.2813 Q526.375,288.2813 526.5234,288.4141 Q526.6719,288.5469 526.6719,288.8125 L526.6719,298.2969 Q526.6719,298.5625 526.8906,298.6953 Q527.1094,298.8281 527.1094,298.8281 L528.9063,298.8281 L528.9063,299.2344 L522.5938,299.2344 L522.5938,298.8281 L524.125,298.8281 Q524.4531,298.8281 524.5859,298.6953 Q524.7188,298.5625 524.7188,298.2969 L524.7188,288.8125 Q524.7188,288.5469 524.5859,288.4141 Q524.4531,288.2813 524.125,288.2813 L522.5938,288.2813 Z "/><text fill="#000000" font-family="sans-serif" font-size="12" font-style="italic" lengthAdjust="spacingAndGlyphs" textLength="54" x="540" y="299.5576">SortedSet</text><line style="stroke: #A80036; stroke-width: 1.5;" x1="512" x2="596" y1="310" y2="310"/><line style="stroke: #A80036; stroke-width: 1.5;" x1="512" x2="596" y1="318" y2="318"/><!--class AbstractSet--><rect fill="#FEFECE" filter="url(#f15mgff27mjg0j)" height="48" id="AbstractSet" style="stroke: #A80036; stroke-width: 1.5;" width="95" x="632.5" y="278"/><ellipse cx="647.5" cy="294" fill="#A9DCDF" rx="11" ry="11" style="stroke: #A80036; stroke-width: 1.0;"/><path d="M647.875,293.9844 L645.8906,293.9844 L645.2969,296.5 Q645.2344,296.8438 645.2344,297.0313 Q645.2344,297.2969 645.3281,297.5625 Q645.4219,297.8281 645.4219,297.8281 L646.0938,297.8281 L646.0938,298.2344 L642.6406,298.2344 L642.6406,297.8281 L642.8281,297.8281 Q643.0938,297.8281 643.2969,297.6641 Q643.5,297.5 643.5625,297.1094 L646.1563,286.9375 L648.0313,286.3281 L650.6719,297.1094 Q650.8125,297.5 651.0078,297.6641 Q651.2031,297.8281 651.2031,297.8281 L651.6719,297.8281 L651.6719,298.2344 L647.8125,298.2344 L647.8125,297.8281 L648.0781,297.8281 Q648.4844,297.8281 648.5469,297.6641 Q648.6094,297.5 648.6094,297.375 Q648.6094,297.1094 648.5469,296.9063 L647.875,293.9844 Z M646.4844,288.0781 L646.4844,288.0781 L646.0313,293.5781 L647.8125,293.5781 L646.4844,288.0781 Z "/><text fill="#000000" font-family="sans-serif" font-size="12" font-style="italic" lengthAdjust="spacingAndGlyphs" textLength="63" x="661.5" y="299.5576">AbstractSet</text><line style="stroke: #A80036; stroke-width: 1.5;" x1="633.5" x2="726.5" y1="310" y2="310"/><line style="stroke: #A80036; stroke-width: 1.5;" x1="633.5" x2="726.5" y1="318" y2="318"/><!--class TreeSet--><rect fill="#FEFECE" filter="url(#f15mgff27mjg0j)" height="48" id="TreeSet" style="stroke: #A80036; stroke-width: 1.5;" width="75" x="537.5" y="386"/><ellipse cx="552.5" cy="402" fill="#ADD1B2" rx="11" ry="11" style="stroke: #A80036; stroke-width: 1.0;"/><path d="M551.0781,407.3594 Q549.2188,407.3594 548.125,405.9688 Q547.0313,404.5781 547.0313,401.5938 Q547.0313,399.0625 548.1953,397.4063 Q549.3594,395.75 551.3438,395.75 Q552.8125,395.75 553.2813,395.875 Q553.75,396.0781 553.75,396.0781 Q553.75,396.0781 553.75,396.0078 Q553.75,395.9375 554.3594,395.0156 L555.4063,398.6719 L554.0781,399.0781 Q553.6094,397.5313 552.9453,396.8672 Q552.2813,396.2031 551.2188,396.2031 Q550.8281,396.2031 550.0625,397.7344 Q549.2969,399.2656 549.2969,401.5156 Q549.2969,403.9844 549.9609,405.375 Q550.625,406.7656 551.1563,406.7656 Q552.2188,406.7656 552.9766,406 Q553.7344,405.2344 554.0781,403.5781 L555.4063,404.1719 Q555.0781,405.5781 554.1797,406.4688 Q553.2813,407.3594 551.0781,407.3594 Z "/><text fill="#000000" font-family="sans-serif" font-size="12" lengthAdjust="spacingAndGlyphs" textLength="43" x="566.5" y="407.5576">TreeSet</text><line style="stroke: #A80036; stroke-width: 1.5;" x1="538.5" x2="611.5" y1="418" y2="418"/><line style="stroke: #A80036; stroke-width: 1.5;" x1="538.5" x2="611.5" y1="426" y2="426"/><!--class HashSet--><rect fill="#FEFECE" filter="url(#f15mgff27mjg0j)" height="48" id="HashSet" style="stroke: #A80036; stroke-width: 1.5;" width="80" x="648" y="386"/><ellipse cx="663" cy="402" fill="#ADD1B2" rx="11" ry="11" style="stroke: #A80036; stroke-width: 1.0;"/><path d="M661.5781,407.3594 Q659.7188,407.3594 658.625,405.9688 Q657.5313,404.5781 657.5313,401.5938 Q657.5313,399.0625 658.6953,397.4063 Q659.8594,395.75 661.8438,395.75 Q663.3125,395.75 663.7813,395.875 Q664.25,396.0781 664.25,396.0781 Q664.25,396.0781 664.25,396.0078 Q664.25,395.9375 664.8594,395.0156 L665.9063,398.6719 L664.5781,399.0781 Q664.1094,397.5313 663.4453,396.8672 Q662.7813,396.2031 661.7188,396.2031 Q661.3281,396.2031 660.5625,397.7344 Q659.7969,399.2656 659.7969,401.5156 Q659.7969,403.9844 660.4609,405.375 Q661.125,406.7656 661.6563,406.7656 Q662.7188,406.7656 663.4766,406 Q664.2344,405.2344 664.5781,403.5781 L665.9063,404.1719 Q665.5781,405.5781 664.6797,406.4688 Q663.7813,407.3594 661.5781,407.3594 Z "/><text fill="#000000" font-family="sans-serif" font-size="12" lengthAdjust="spacingAndGlyphs" textLength="48" x="677" y="407.5576">HashSet</text><line style="stroke: #A80036; stroke-width: 1.5;" x1="649" x2="727" y1="418" y2="418"/><line style="stroke: #A80036; stroke-width: 1.5;" x1="649" x2="727" y1="426" y2="426"/><!--class LinkedHashSet--><rect fill="#FEFECE" filter="url(#f15mgff27mjg0j)" height="48" id="LinkedHashSet" style="stroke: #A80036; stroke-width: 1.5;" width="117" x="610.5" y="494"/><ellipse cx="625.5" cy="510" fill="#ADD1B2" rx="11" ry="11" style="stroke: #A80036; stroke-width: 1.0;"/><path d="M624.0781,515.3594 Q622.2188,515.3594 621.125,513.9688 Q620.0313,512.5781 620.0313,509.5938 Q620.0313,507.0625 621.1953,505.4063 Q622.3594,503.75 624.3438,503.75 Q625.8125,503.75 626.2813,503.875 Q626.75,504.0781 626.75,504.0781 Q626.75,504.0781 626.75,504.0078 Q626.75,503.9375 627.3594,503.0156 L628.4063,506.6719 L627.0781,507.0781 Q626.6094,505.5313 625.9453,504.8672 Q625.2813,504.2031 624.2188,504.2031 Q623.8281,504.2031 623.0625,505.7344 Q622.2969,507.2656 622.2969,509.5156 Q622.2969,511.9844 622.9609,513.375 Q623.625,514.7656 624.1563,514.7656 Q625.2188,514.7656 625.9766,514 Q626.7344,513.2344 627.0781,511.5781 L628.4063,512.1719 Q628.0781,513.5781 627.1797,514.4688 Q626.2813,515.3594 624.0781,515.3594 Z "/><text fill="#000000" font-family="sans-serif" font-size="12" lengthAdjust="spacingAndGlyphs" textLength="85" x="639.5" y="515.5576">LinkedHashSet</text><line style="stroke: #A80036; stroke-width: 1.5;" x1="611.5" x2="726.5" y1="526" y2="526"/><line style="stroke: #A80036; stroke-width: 1.5;" x1="611.5" x2="726.5" y1="534" y2="534"/><!--class Map--><rect fill="#FEFECE" filter="url(#f15mgff27mjg0j)" height="48" id="Map" style="stroke: #A80036; stroke-width: 1.5;" width="55" x="125.5" y="62"/><ellipse cx="140.5" cy="78" fill="#B4A7E5" rx="11" ry="11" style="stroke: #A80036; stroke-width: 1.0;"/><path d="M137.0938,72.2813 L137.0938,71.875 L143.4063,71.875 L143.4063,72.2813 L140.875,72.2813 Q140.875,72.2813 141.0234,72.4141 Q141.1719,72.5469 141.1719,72.8125 L141.1719,82.2969 Q141.1719,82.5625 141.3906,82.6953 Q141.6094,82.8281 141.6094,82.8281 L143.4063,82.8281 L143.4063,83.2344 L137.0938,83.2344 L137.0938,82.8281 L138.625,82.8281 Q138.9531,82.8281 139.0859,82.6953 Q139.2188,82.5625 139.2188,82.2969 L139.2188,72.8125 Q139.2188,72.5469 139.0859,72.4141 Q138.9531,72.2813 138.625,72.2813 L137.0938,72.2813 Z "/><text fill="#000000" font-family="sans-serif" font-size="12" font-style="italic" lengthAdjust="spacingAndGlyphs" textLength="23" x="154.5" y="83.5576">Map</text><line style="stroke: #A80036; stroke-width: 1.5;" x1="126.5" x2="179.5" y1="94" y2="94"/><line style="stroke: #A80036; stroke-width: 1.5;" x1="126.5" x2="179.5" y1="102" y2="102"/><!--class AbstractMap--><rect fill="#FEFECE" filter="url(#f15mgff27mjg0j)" height="48" id="AbstractMap" style="stroke: #A80036; stroke-width: 1.5;" width="100" x="38" y="170"/><ellipse cx="53" cy="186" fill="#A9DCDF" rx="11" ry="11" style="stroke: #A80036; stroke-width: 1.0;"/><path d="M53.375,185.9844 L51.3906,185.9844 L50.7969,188.5 Q50.7344,188.8438 50.7344,189.0313 Q50.7344,189.2969 50.8281,189.5625 Q50.9219,189.8281 50.9219,189.8281 L51.5938,189.8281 L51.5938,190.2344 L48.1406,190.2344 L48.1406,189.8281 L48.3281,189.8281 Q48.5938,189.8281 48.7969,189.6641 Q49,189.5 49.0625,189.1094 L51.6563,178.9375 L53.5313,178.3281 L56.1719,189.1094 Q56.3125,189.5 56.5078,189.6641 Q56.7031,189.8281 56.7031,189.8281 L57.1719,189.8281 L57.1719,190.2344 L53.3125,190.2344 L53.3125,189.8281 L53.5781,189.8281 Q53.9844,189.8281 54.0469,189.6641 Q54.1094,189.5 54.1094,189.375 Q54.1094,189.1094 54.0469,188.9063 L53.375,185.9844 Z M51.9844,180.0781 L51.9844,180.0781 L51.5313,185.5781 L53.3125,185.5781 L51.9844,180.0781 Z "/><text fill="#000000" font-family="sans-serif" font-size="12" font-style="italic" lengthAdjust="spacingAndGlyphs" textLength="68" x="67" y="191.5576">AbstractMap</text><line style="stroke: #A80036; stroke-width: 1.5;" x1="39" x2="137" y1="202" y2="202"/><line style="stroke: #A80036; stroke-width: 1.5;" x1="39" x2="137" y1="210" y2="210"/><!--class SortedMap--><rect fill="#FEFECE" filter="url(#f15mgff27mjg0j)" height="48" id="SortedMap" style="stroke: #A80036; stroke-width: 1.5;" width="91" x="173.5" y="170"/><ellipse cx="188.5" cy="186" fill="#B4A7E5" rx="11" ry="11" style="stroke: #A80036; stroke-width: 1.0;"/><path d="M185.0938,180.2813 L185.0938,179.875 L191.4063,179.875 L191.4063,180.2813 L188.875,180.2813 Q188.875,180.2813 189.0234,180.4141 Q189.1719,180.5469 189.1719,180.8125 L189.1719,190.2969 Q189.1719,190.5625 189.3906,190.6953 Q189.6094,190.8281 189.6094,190.8281 L191.4063,190.8281 L191.4063,191.2344 L185.0938,191.2344 L185.0938,190.8281 L186.625,190.8281 Q186.9531,190.8281 187.0859,190.6953 Q187.2188,190.5625 187.2188,190.2969 L187.2188,180.8125 Q187.2188,180.5469 187.0859,180.4141 Q186.9531,180.2813 186.625,180.2813 L185.0938,180.2813 Z "/><text fill="#000000" font-family="sans-serif" font-size="12" font-style="italic" lengthAdjust="spacingAndGlyphs" textLength="59" x="202.5" y="191.5576">SortedMap</text><line style="stroke: #A80036; stroke-width: 1.5;" x1="174.5" x2="263.5" y1="202" y2="202"/><line style="stroke: #A80036; stroke-width: 1.5;" x1="174.5" x2="263.5" y1="210" y2="210"/><!--class HashMap--><rect fill="#FEFECE" filter="url(#f15mgff27mjg0j)" height="48" id="HashMap" style="stroke: #A80036; stroke-width: 1.5;" width="85" x="39.5" y="278"/><ellipse cx="54.5" cy="294" fill="#ADD1B2" rx="11" ry="11" style="stroke: #A80036; stroke-width: 1.0;"/><path d="M53.0781,299.3594 Q51.2188,299.3594 50.125,297.9688 Q49.0313,296.5781 49.0313,293.5938 Q49.0313,291.0625 50.1953,289.4063 Q51.3594,287.75 53.3438,287.75 Q54.8125,287.75 55.2813,287.875 Q55.75,288.0781 55.75,288.0781 Q55.75,288.0781 55.75,288.0078 Q55.75,287.9375 56.3594,287.0156 L57.4063,290.6719 L56.0781,291.0781 Q55.6094,289.5313 54.9453,288.8672 Q54.2813,288.2031 53.2188,288.2031 Q52.8281,288.2031 52.0625,289.7344 Q51.2969,291.2656 51.2969,293.5156 Q51.2969,295.9844 51.9609,297.375 Q52.625,298.7656 53.1563,298.7656 Q54.2188,298.7656 54.9766,298 Q55.7344,297.2344 56.0781,295.5781 L57.4063,296.1719 Q57.0781,297.5781 56.1797,298.4688 Q55.2813,299.3594 53.0781,299.3594 Z "/><text fill="#000000" font-family="sans-serif" font-size="12" lengthAdjust="spacingAndGlyphs" textLength="53" x="68.5" y="299.5576">HashMap</text><line style="stroke: #A80036; stroke-width: 1.5;" x1="40.5" x2="123.5" y1="310" y2="310"/><line style="stroke: #A80036; stroke-width: 1.5;" x1="40.5" x2="123.5" y1="318" y2="318"/><!--class TreeMap--><rect fill="#FEFECE" filter="url(#f15mgff27mjg0j)" height="48" id="TreeMap" style="stroke: #A80036; stroke-width: 1.5;" width="80" x="160" y="278"/><ellipse cx="175" cy="294" fill="#ADD1B2" rx="11" ry="11" style="stroke: #A80036; stroke-width: 1.0;"/><path d="M173.5781,299.3594 Q171.7188,299.3594 170.625,297.9688 Q169.5313,296.5781 169.5313,293.5938 Q169.5313,291.0625 170.6953,289.4063 Q171.8594,287.75 173.8438,287.75 Q175.3125,287.75 175.7813,287.875 Q176.25,288.0781 176.25,288.0781 Q176.25,288.0781 176.25,288.0078 Q176.25,287.9375 176.8594,287.0156 L177.9063,290.6719 L176.5781,291.0781 Q176.1094,289.5313 175.4453,288.8672 Q174.7813,288.2031 173.7188,288.2031 Q173.3281,288.2031 172.5625,289.7344 Q171.7969,291.2656 171.7969,293.5156 Q171.7969,295.9844 172.4609,297.375 Q173.125,298.7656 173.6563,298.7656 Q174.7188,298.7656 175.4766,298 Q176.2344,297.2344 176.5781,295.5781 L177.9063,296.1719 Q177.5781,297.5781 176.6797,298.4688 Q175.7813,299.3594 173.5781,299.3594 Z "/><text fill="#000000" font-family="sans-serif" font-size="12" lengthAdjust="spacingAndGlyphs" textLength="48" x="189" y="299.5576">TreeMap</text><line style="stroke: #A80036; stroke-width: 1.5;" x1="161" x2="239" y1="310" y2="310"/><line style="stroke: #A80036; stroke-width: 1.5;" x1="161" x2="239" y1="318" y2="318"/><!--class LinkedHashMap--><rect fill="#FEFECE" filter="url(#f15mgff27mjg0j)" height="48" id="LinkedHashMap" style="stroke: #A80036; stroke-width: 1.5;" width="122" x="38" y="386"/><ellipse cx="53" cy="402" fill="#ADD1B2" rx="11" ry="11" style="stroke: #A80036; stroke-width: 1.0;"/><path d="M51.5781,407.3594 Q49.7188,407.3594 48.625,405.9688 Q47.5313,404.5781 47.5313,401.5938 Q47.5313,399.0625 48.6953,397.4063 Q49.8594,395.75 51.8438,395.75 Q53.3125,395.75 53.7813,395.875 Q54.25,396.0781 54.25,396.0781 Q54.25,396.0781 54.25,396.0078 Q54.25,395.9375 54.8594,395.0156 L55.9063,398.6719 L54.5781,399.0781 Q54.1094,397.5313 53.4453,396.8672 Q52.7813,396.2031 51.7188,396.2031 Q51.3281,396.2031 50.5625,397.7344 Q49.7969,399.2656 49.7969,401.5156 Q49.7969,403.9844 50.4609,405.375 Q51.125,406.7656 51.6563,406.7656 Q52.7188,406.7656 53.4766,406 Q54.2344,405.2344 54.5781,403.5781 L55.9063,404.1719 Q55.5781,405.5781 54.6797,406.4688 Q53.7813,407.3594 51.5781,407.3594 Z "/><text fill="#000000" font-family="sans-serif" font-size="12" lengthAdjust="spacingAndGlyphs" textLength="90" x="67" y="407.5576">LinkedHashMap</text><line style="stroke: #A80036; stroke-width: 1.5;" x1="39" x2="159" y1="418" y2="418"/><line style="stroke: #A80036; stroke-width: 1.5;" x1="39" x2="159" y1="426" y2="426"/><!--link Collection to List--><path d="M521.566,128.575 C515.373,142.543 508.686,157.622 503.341,169.678 " fill="none" id="Collection-List" style="stroke: #A80036; stroke-width: 1.0;"/><polygon fill="none" points="515.296,125.446,529.802,110,528.094,131.121,515.296,125.446" style="stroke: #A80036; stroke-width: 1.0;"/><!--link Collection to AbstractCollection--><path d="M484.873,120.583 C458.529,136.632 427.66,155.437 403.982,169.862 " fill="none" id="Collection-AbstractCollection" style="stroke: #A80036; stroke-width: 1.0; stroke-dasharray: 7.0,7.0;"/><polygon fill="none" points="481.523,114.428,502.245,110,488.806,126.384,481.523,114.428" style="stroke: #A80036; stroke-width: 1.0;"/><!--link AbstractCollection to AbstractList--><path d="M349.135,236.575 C343.468,250.543 337.351,265.622 332.461,277.678 " fill="none" id="AbstractCollection-AbstractList" style="stroke: #A80036; stroke-width: 1.0;"/><polygon fill="none" points="342.665,233.902,356.67,218,355.638,239.165,342.665,233.902" style="stroke: #A80036; stroke-width: 1.0;"/><!--link List to AbstractList--><path d="M449.885,221.883 C422.181,239.158 386.562,261.367 360.118,277.856 " fill="none" id="List-AbstractList" style="stroke: #A80036; stroke-width: 1.0; stroke-dasharray: 7.0,7.0;"/><polygon fill="none" points="446.506,215.741,467.181,211.099,453.913,227.621,446.506,215.741" style="stroke: #A80036; stroke-width: 1.0;"/><!--link AbstractList to ArrayList--><path d="M290.87,341.702 C278.628,356.448 265.06,372.791 254.361,385.678 " fill="none" id="AbstractList-ArrayList" style="stroke: #A80036; stroke-width: 1.0;"/><polygon fill="none" points="285.744,336.917,303.905,326,296.516,345.86,285.744,336.917" style="stroke: #A80036; stroke-width: 1.0;"/><!--link AbstractList to AbstractSequentialList--><path d="M347.232,343.134 C355.905,357.499 365.389,373.207 372.919,385.678 " fill="none" id="AbstractList-AbstractSequentialList" style="stroke: #A80036; stroke-width: 1.0;"/><polygon fill="none" points="341.232,346.74,336.887,326,353.217,339.504,341.232,346.74" style="stroke: #A80036; stroke-width: 1.0;"/><!--link AbstractSequentialList to LinkedList--><path d="M409.098,452.094 C416.681,466.196 424.902,481.4838 431.459,493.6784 " fill="none" id="AbstractSequentialList-LinkedList" style="stroke: #A80036; stroke-width: 1.0;"/><polygon fill="none" points="402.675,454.93,399.368,434,415.005,448.3,402.675,454.93" style="stroke: #A80036; stroke-width: 1.0;"/><!--link Collection to Queue--><path d="M558.826,128.575 C565.151,142.543 571.98,157.622 577.439,169.678 " fill="none" id="Collection-Queue" style="stroke: #A80036; stroke-width: 1.0;"/><polygon fill="none" points="552.289,131.107,550.415,110,565.042,125.332,552.289,131.107" style="stroke: #A80036; stroke-width: 1.0;"/><!--link Queue to Deque--><path d="M539.816,229.745 C517.921,245.533 492.611,263.784 473.088,277.862 " fill="none" id="Queue-Deque" style="stroke: #A80036; stroke-width: 1.0;"/><polygon fill="none" points="535.787,224.02,556.103,218,543.975,235.376,535.787,224.02" style="stroke: #A80036; stroke-width: 1.0;"/><!--link Deque to LinkedList--><path d="M465.771,343.798 C472.39,356.817 478.636,371.594 482,386 C486.851,406.774 486.545,413.156 482,434 C477.341,455.368 466.663,477.8178 457.808,493.9734 " fill="none" id="Deque-LinkedList" style="stroke: #A80036; stroke-width: 1.0; stroke-dasharray: 7.0,7.0;"/><polygon fill="none" points="459.612,347.127,456.096,326.231,471.875,340.373,459.612,347.127" style="stroke: #A80036; stroke-width: 1.0;"/><!--link Collection to Set--><path d="M587.281,122.048 C610.799,139.48 638.28,159.851 657.748,174.282 " fill="none" id="Collection-Set" style="stroke: #A80036; stroke-width: 1.0;"/><polygon fill="none" points="582.928,127.534,571.029,110,591.265,116.287,582.928,127.534" style="stroke: #A80036; stroke-width: 1.0;"/><!--link Set to SortedSet--><path d="M642.098,228.609 C622.609,244.623 599.787,263.377 582.255,277.783 " fill="none" id="Set-SortedSet" style="stroke: #A80036; stroke-width: 1.0;"/><polygon fill="none" points="637.925,222.979,657.821,215.69,646.813,233.795,637.925,222.979" style="stroke: #A80036; stroke-width: 1.0;"/><!--link Set to AbstractSet--><path d="M681.782,238.024 C681.399,251.579 680.989,266.038 680.66,277.678 " fill="none" id="Set-AbstractSet" style="stroke: #A80036; stroke-width: 1.0; stroke-dasharray: 7.0,7.0;"/><polygon fill="none" points="674.786,237.794,682.349,218,688.78,238.19,674.786,237.794" style="stroke: #A80036; stroke-width: 1.0;"/><!--link AbstractSet to TreeSet--><path d="M643.071,340.28 C628.104,355.391 611.279,372.375 598.102,385.678 " fill="none" id="AbstractSet-TreeSet" style="stroke: #A80036; stroke-width: 1.0;"/><polygon fill="none" points="638.168,335.283,657.217,326,648.115,345.136,638.168,335.283" style="stroke: #A80036; stroke-width: 1.0;"/><!--link AbstractSet to HashSet--><path d="M683.247,346.024 C684.27,359.579 685.361,374.038 686.24,385.678 " fill="none" id="AbstractSet-HashSet" style="stroke: #A80036; stroke-width: 1.0;"/><polygon fill="none" points="676.261,346.471,681.736,326,690.221,345.417,676.261,346.471" style="stroke: #A80036; stroke-width: 1.0;"/><!--link SortedSet to TreeSet--><path d="M562.524,346.024 C565.209,359.579 568.074,374.038 570.38,385.678 " fill="none" id="SortedSet-TreeSet" style="stroke: #A80036; stroke-width: 1.0; stroke-dasharray: 7.0,7.0;"/><polygon fill="none" points="555.577,346.98,558.557,326,569.31,344.259,555.577,346.98" style="stroke: #A80036; stroke-width: 1.0;"/><!--link HashSet to LinkedHashSet--><path d="M680.288,454.024 C677.858,467.579 675.267,482.0381 673.18,493.6784 " fill="none" id="HashSet-LinkedHashSet" style="stroke: #A80036; stroke-width: 1.0;"/><polygon fill="none" points="673.458,452.452,683.877,434,687.239,454.922,673.458,452.452" style="stroke: #A80036; stroke-width: 1.0;"/><!--link Map to AbstractMap--><path d="M128.39,127.134 C119.581,141.499 109.949,157.207 102.301,169.678 " fill="none" id="Map-AbstractMap" style="stroke: #A80036; stroke-width: 1.0; stroke-dasharray: 7.0,7.0;"/><polygon fill="none" points="122.474,123.391,138.896,110,134.408,130.709,122.474,123.391" style="stroke: #A80036; stroke-width: 1.0;"/><!--link Map to SortedMap--><path d="M177.989,127.134 C186.933,141.499 196.714,157.207 204.479,169.678 " fill="none" id="Map-SortedMap" style="stroke: #A80036; stroke-width: 1.0;"/><polygon fill="none" points="171.95,130.678,167.321,110,183.835,123.278,171.95,130.678" style="stroke: #A80036; stroke-width: 1.0;"/><!--link AbstractMap to HashMap--><path d="M85.5647,238.024 C84.7974,251.579 83.979,266.038 83.3201,277.678 " fill="none" id="AbstractMap-HashMap" style="stroke: #A80036; stroke-width: 1.0;"/><polygon fill="none" points="78.5789,237.573,86.6981,218,92.5565,238.364,78.5789,237.573" style="stroke: #A80036; stroke-width: 1.0;"/><!--link AbstractMap to TreeMap--><path d="M126.892,231.809 C142.982,247.036 161.156,264.237 175.358,277.678 " fill="none" id="AbstractMap-TreeMap" style="stroke: #A80036; stroke-width: 1.0;"/><polygon fill="none" points="122.017,236.832,112.302,218,131.64,226.664,122.017,236.832" style="stroke: #A80036; stroke-width: 1.0;"/><!--link SortedMap to TreeMap--><path d="M211.288,238.024 C208.858,251.579 206.267,266.038 204.18,277.678 " fill="none" id="SortedMap-TreeMap" style="stroke: #A80036; stroke-width: 1.0; stroke-dasharray: 7.0,7.0;"/><polygon fill="none" points="204.458,236.452,214.877,218,218.239,238.922,204.458,236.452" style="stroke: #A80036; stroke-width: 1.0;"/><!--link HashMap to LinkedHashMap--><path d="M88.9,346.024 C91.074,359.579 93.3929,374.038 95.2597,385.678 " fill="none" id="HashMap-LinkedHashMap" style="stroke: #A80036; stroke-width: 1.0;"/><polygon fill="none" points="81.9442,346.857,85.6887,326,95.7676,344.64,81.9442,346.857" style="stroke: #A80036; stroke-width: 1.0;"/><!--
@startuml java-collections-framework

' author: tomoya deng

package java.util {
    interface Collection
    abstract class AbstractCollection

    ' List family
    interface List
    abstract class AbstractList
    class ArrayList
    abstract class AbstractSequentialList
    class LinkedList

    Collection <|- - List
    Collection <|.. AbstractCollection
    AbstractCollection <|- - AbstractList
    List <|.. AbstractList
    AbstractList <|- - ArrayList
    AbstractList <|- - AbstractSequentialList
    AbstractSequentialList <|- - LinkedList

    ' Queue family
    interface Queue
    interface Deque
    Collection <|- - Queue
    Queue <|- - Deque
    Deque <|.. LinkedList


    ' Set family
    interface Set
    interface SortedSet
    abstract class AbstractSet
    class TreeSet
    class HashSet
    class LinkedHashSet

    Collection <|- - Set
    Set <|- - SortedSet
    Set <|.. AbstractSet
    AbstractSet <|- - TreeSet
    AbstractSet <|- - HashSet
    SortedSet <|.. TreeSet
    HashSet <|- - LinkedHashSet


    ' Map family
    interface Map
    abstract class AbstractMap
    interface SortedMap
    class HashMap
    class TreeMap
    class LinkedHashMap

    Map <|.. AbstractMap
    Map <|- - SortedMap
    AbstractMap <|- - HashMap
    AbstractMap <|- - TreeMap
    SortedMap <|.. TreeMap
    HashMap <|- - LinkedHashMap
}

@enduml

PlantUML version 1.2017.15(Tue Jul 04 00:45:34 CST 2017)
(GPL source distribution)
Java Runtime: Java(TM) SE Runtime Environment
JVM: Java HotSpot(TM) 64-Bit Server VM
Java Version: 1.8.0_144-b01
Operating System: Windows 10
OS Version: 10.0
Default Encoding: GBK
Language: en
Country: US
--></g></svg>